<svg width="8" height="8" viewBox="0 0 8 8" fill="none" xmlns="http://www.w3.org/2000/svg">
<path fill-rule="evenodd" clip-rule="evenodd" d="M3.89745 0.809582C2.28975 0.809582 0.98645 2.11288 0.98645 3.72058C0.98645 5.32828 2.28975 6.63158 3.89745 6.63158C5.50515 6.63158 6.80845 5.32828 6.80845 3.72058C6.80845 2.11288 5.50515 0.809582 3.89745 0.809582ZM1.38645 3.72058C1.38645 2.33379 2.51066 1.20958 3.89745 1.20958C5.28423 1.20958 6.40845 2.33379 6.40845 3.72058C6.40845 5.10737 5.28423 6.23158 3.89745 6.23158C2.51066 6.23158 1.38645 5.10737 1.38645 3.72058Z" fill="#0000FF"/>
<path d="M3.58916 1.6322L4.18272 1.54455L4.00742 0.357422L3.41386 0.445072C3.00103 0.506033 2.60344 0.644487 2.24204 0.853142L1.72243 1.15314L2.32243 2.19237L2.84204 1.89237C3.07246 1.75934 3.32595 1.67107 3.58916 1.6322Z" fill="#0000FF"/>
<path d="M5.55297 0.853151L5.03335 0.553151L4.43335 1.59238L4.95297 1.89238C5.18339 2.02541 5.38658 2.20081 5.55184 2.40932L5.92453 2.87953L6.86496 2.13416L6.49228 1.66394C6.23307 1.3369 5.91437 1.06181 5.55297 0.853151Z" fill="#0000FF"/>
<path d="M6.97608 4.93944C7.1297 4.55144 7.20859 4.13789 7.20859 3.72058V3.12058H6.00859V3.72058C6.00859 3.98665 5.95829 4.25031 5.86035 4.49769L5.63947 5.05556L6.7552 5.49731L6.97608 4.93944Z" fill="#0000FF"/>
<path d="M5.55305 6.5881L6.07266 6.2881L5.47266 5.24887L4.95305 5.54887C4.72263 5.6819 4.46914 5.77017 4.20593 5.80904L3.61237 5.89669L3.78767 7.08382L4.38123 6.99617C4.79406 6.93521 5.19165 6.79675 5.55305 6.5881Z" fill="#0000FF"/>
</svg>
