<svg width="10" height="5" viewBox="0 0 10 5" fill="none" xmlns="http://www.w3.org/2000/svg">
<path fill-rule="evenodd" clip-rule="evenodd" d="M7.55079 1.11511C8.17856 1.11511 8.8684 1.75227 8.8684 2.69794C8.8684 3.65758 8.21717 4.32625 7.55081 4.32625L5.73 4.32625C5.59192 4.32625 5.48 4.43818 5.48 4.57625C5.48 4.71432 5.59192 4.82625 5.73 4.82625H7.55081C8.56633 4.82625 9.3684 3.85456 9.3684 2.69794C9.3684 1.52734 8.50327 0.615112 7.55079 0.615112H5.72998C5.5919 0.615112 5.47998 0.727041 5.47997 0.865112C5.47997 1.00318 5.5919 1.11511 5.72997 1.11511L7.55079 1.11511ZM6.46261 2.97069C6.60068 2.97069 6.71261 2.85877 6.71261 2.72069C6.71261 2.58262 6.60068 2.47069 6.46261 2.47069L3.07418 2.47069C2.93611 2.47069 2.82418 2.58262 2.82418 2.72069C2.82418 2.85877 2.93611 2.97069 3.07418 2.97069L6.46261 2.97069ZM4.03576 1.11511C4.17383 1.11511 4.28576 1.00318 4.28576 0.865112C4.28576 0.727041 4.17383 0.615112 4.03576 0.615112H2.21494C1.26247 0.615112 0.397336 1.52733 0.397336 2.69794C0.397336 3.85456 1.19941 4.82625 2.21492 4.82625H4.03574C4.17381 4.82625 4.28574 4.71432 4.28574 4.57625C4.28574 4.43818 4.17381 4.32625 4.03574 4.32625H2.21492C1.54856 4.32625 0.897336 3.65758 0.897336 2.69794C0.897336 1.75227 1.58717 1.11511 2.21494 1.11511L4.03576 1.11511Z" fill="#0000FF"/>
</svg>
